<svg width="24" height="24" viewBox="0 0 24 24" fill="none" xmlns="http://www.w3.org/2000/svg">
<g clip-path="url(#clip0)">
<path d="M8.26895 24C9.1823 24 9.92272 23.2325 9.92272 22.2857C9.92272 21.339 9.1823 20.5715 8.26895 20.5715C7.35559 20.5715 6.61517 21.339 6.61517 22.2857C6.61517 23.2325 7.35559 24 8.26895 24Z" fill="white"/>
<path d="M19.8453 24C20.7586 24 21.499 23.2325 21.499 22.2857C21.499 21.339 20.7586 20.5715 19.8453 20.5715C18.9319 20.5715 18.1915 21.339 18.1915 22.2857C18.1915 23.2325 18.9319 24 19.8453 24Z" fill="white"/>
<path d="M23.1528 4.28586H4.81247L4.13443 0.685884C4.09577 0.489363 3.99185 0.313117 3.84077 0.187826C3.68968 0.0625338 3.50099 -0.00386954 3.30754 0.000174375H0V1.71445H2.6295L5.7882 18.1715C5.82686 18.368 5.93077 18.5442 6.08186 18.6695C6.23295 18.7948 6.42164 18.8612 6.61509 18.8572H21.499V17.1429H7.29313L6.61509 13.7144H21.499C21.6902 13.7192 21.877 13.6552 22.0278 13.5333C22.1786 13.4114 22.2839 13.2392 22.3259 13.0458L23.9797 5.33157C24.0074 5.20439 24.0068 5.07233 23.9778 4.94545C23.9488 4.81857 23.8924 4.70021 23.8126 4.59937C23.7329 4.49854 23.632 4.41789 23.5177 4.36356C23.4033 4.30923 23.2785 4.28266 23.1528 4.28586ZM20.8375 12.0001H6.30087L5.14323 6.00013H22.1192L20.8375 12.0001Z" fill="white"/>
</g>
<defs>
<clipPath id="clip0">
<rect width="24" height="24" fill="white"/>
</clipPath>
</defs>
</svg>
