<svg width="22" height="22" viewBox="0 0 22 22" fill="none" xmlns="http://www.w3.org/2000/svg">
<path d="M21.7609 9.82584H4.2721L14.7397 0.432584C14.907 0.28118 14.8054 0 14.5842 0H11.9389C11.8224 0 11.7118 0.0432582 11.6251 0.120505L0.329579 10.2522C0.226125 10.3449 0.143156 10.4596 0.0862925 10.5883C0.029429 10.717 0 10.8569 0 10.9985C0 11.14 0.029429 11.2799 0.0862925 11.4086C0.143156 11.5374 0.226125 11.652 0.329579 11.7447L11.6909 21.9382C11.7357 21.9784 11.7895 22 11.8463 22H14.5812C14.8024 22 14.9041 21.7157 14.7367 21.5674L4.2721 12.1742H21.7609C21.8924 12.1742 22 12.0629 22 11.927V10.073C22 9.93708 21.8924 9.82584 21.7609 9.82584Z" fill="#2C2929"/>
</svg>
